<?xml version="1.0" encoding="utf-8"?>
<!-- Generator: Adobe Illustrator 27.1.0, SVG Export Plug-In . SVG Version: 6.00 Build 0)  -->
<svg version="1.1" id="Capa_1" xmlns="http://www.w3.org/2000/svg" xmlns:xlink="http://www.w3.org/1999/xlink" x="0px" y="0px"
	 viewBox="0 0 965 843" style="enable-background:new 0 0 965 843;" xml:space="preserve">
<style type="text/css">
	.st0{fill:#F2CE00;}
</style>
<g>
	<path class="st0" d="M414.14,410.38c-11.53-23.87-17.44-50.99-14.41-77.07c2.42-20.8,26.44-30.18,42.46-39.95
		c16.3-9.94,32.8-19.58,49.5-28.83c68.98-38.23,141.96-70.13,218.74-88.93c41.45-10.15,85.16-18.45,127.77-11.15
		c3.59,0.61,4.77-4.91,1.17-5.54c-38.3-6.68-76.99-0.86-114.59,7.38c-42.51,9.32-84.04,22.79-124.32,39.23
		c-39.54,16.14-77.9,35.11-115.18,55.92c-18.82,10.51-37.38,21.49-55.7,32.84c-14.38,8.91-31.8,16.65-35.13,34.9
		c-7.15,39.13,8.85,85.08,35.08,113.48c1.1,1.19,2.86,0.28,3.33-0.99C424.98,432.27,418.22,422.06,414.14,410.38z"/>
	<path class="st0" d="M551.82,482.25c17.81-12.14,35.37-24.65,52.61-37.6c34.14-25.64,67.04-53.01,97.83-82.61
		c31.36-30.15,60.52-62.65,86.27-97.73c22.78-31.02,43.79-64.03,53.21-101.75c0.89-3.55-4.65-4.7-5.54-1.17
		c-10.61,41.9-35.92,78.5-62.01,112.27C725.88,336.22,667.13,390,604.21,437.55c-15.23,11.51-30.73,22.68-46.43,33.55
		c-15.42,10.68-33.74,28.84-53.74,22.61c-25.64-7.99-48.47-24.98-65.76-45.85c-7.93-8.69-15.17-17.95-20.33-28.39
		c-1.21,0.19-2.35,1.34-1.78,2.65c15.33,35.5,50.85,68.75,89.51,78.09C523.71,504.56,537.84,491.78,551.82,482.25z"/>
	<path class="st0" d="M455.86,467.97c-22.89-23.19-39.96-51.37-53.4-80.79c-0.19-0.42-0.92-0.39-0.87,0.16
		c1.55,16.35,10.28,31.97,19.4,45.28c9.26,13.52,19.57,28.32,33.44,37.46C455.71,470.93,456.83,468.95,455.86,467.97z"/>
	<path class="st0" d="M750.29,306.01c-19.84-17.22-37.85-35.51-52.25-57.64c-7.05-10.83-13.21-22.16-18.44-33.98
		c-4.65-10.5-5.79-18.94-5.58-30.31c0-0.08-0.11-0.15-0.18-0.09c-6.42,4.99-5.15,14.02-3.3,21.08c3.41,13,10.32,25.71,17.02,37.29
		c14.9,25.76,35.19,49.94,59.46,67.34C749.54,311.49,752.73,308.13,750.29,306.01z"/>
	<path class="st0" d="M401.31,474.51c-15.86-19.35-28.09-41.54-34.28-65.88c-2.96-11.61-6.2-26.25-4.64-38.35
		c1.23-9.56,5.76-10.09,13.75-11.93c5.85-1.34,11.71-2.63,17.5-4.18c0.11,0.92,0.18,1.85,0.33,2.77c0.15,1.09,1.93,1.83,2.39,0.51
		c0.74-2.11,1.33-3.86,2-6c0.46-1.46-1.08-3.38-2.64-3.11c-8.31,1.44-16.53,3.4-24.75,5.31c-4.47,1.04-9.77,1.75-12.51,5.94
		c-2.54,3.88-1.93,9.95-1.88,14.26c0.08,8.23,0.88,16.44,2.29,24.55c5.13,29.56,18.51,57.13,39.56,78.59
		C399.92,478.51,402.69,476.19,401.31,474.51z"/>
	<path class="st0" d="M375.3,434.51c11.25,22.34,26.58,42.52,46.31,58.05c9.41,7.41,21.49,16.31,33.17,19.79
		c9.24,2.75,11.56-1.17,16.48-7.73c3.6-4.8,7.15-9.63,10.91-14.3c-0.8-0.48-1.62-0.92-2.4-1.42c-0.94-0.58-0.89-2.5,0.51-2.39
		c2.23,0.18,4.07,0.35,6.3,0.61c1.52,0.18,2.65,2.36,1.77,3.67c-4.69,7.01-9.81,13.74-14.89,20.47c-2.77,3.66-5.56,8.22-10.5,9.03
		c-4.58,0.75-9.87-2.27-13.8-4.06c-7.49-3.42-14.67-7.47-21.51-12.04c-24.94-16.67-44.72-40.09-55.79-68.03
		C371.07,434.16,374.32,432.57,375.3,434.51z"/>
	<path class="st0" d="M593.45,206.56c-12.7-7.19-27.18-18.21-41.74-21.06c-13.82-2.71-30.74,2.39-44.33,5.09
		c-34.98,6.93-69.15,17.92-101.63,32.62c-15.11,6.84-29.86,14.43-44.17,22.82c-8.33,4.88-16.59,9.97-24.55,15.45
		c-3.26,2.25-8.04,4.81-9.06,9.05c-2.79,11.6,18.55,16.7,25.88,19.42c18.14,6.74,36.32,13.36,54.48,20.05
		c3.49,1.28,6.16-3.93,2.62-5.23c-14.53-5.35-29.06-10.69-43.58-16.04c-6.59-2.42-13.27-4.7-19.76-7.39
		c-2.25-0.94-6.85-2.07-8.58-3.99c-7.05-7.85-0.32-9.99,4.2-12.98c25.48-16.89,52.63-31.22,80.94-42.73
		c26.87-10.93,54.76-19.36,83.2-25.11c13.37-2.7,31.9-8.47,45.45-4.6c12.13,3.47,23.79,11.7,35.03,17.93
		c-2.35,2.8-5.58,6.71-4.83,6.11c-0.37,0.3,0.03,0.93,0.41,0.63c-1.26,1.02,9.56-4.8,10.28-5.21
		C595.66,210.29,595.17,207.53,593.45,206.56z"/>
	<path class="st0" d="M697.61,366.71c1.43,14.52,5.62,32.23,2.33,46.69c-3.13,13.73-14.66,27.13-22.62,38.46
		c-20.52,29.16-44.42,55.94-71.03,79.67c-12.37,11.04-25.3,21.45-38.77,31.12c-7.84,5.64-15.84,11.12-24.08,16.17
		c-3.38,2.07-7.66,5.4-11.94,4.61c-11.73-2.16-7.75-23.73-7.26-31.53c1.2-19.31,2.51-38.62,3.77-57.93
		c0.24-3.71,6.09-4.04,5.84-0.28c-1.01,15.45-2.01,30.89-3.02,46.34c-0.46,7.01-1.09,14.04-1.26,21.06
		c-0.06,2.44-0.88,7.1,0.17,9.46c4.31,9.63,9,4.34,13.57,1.43c25.77-16.44,49.88-35.45,71.88-56.66
		c20.89-20.13,39.9-42.21,56.69-65.87c7.89-11.12,20.68-25.73,22.64-39.68c1.75-12.49-1.05-26.49-2.19-39.29
		c-3.52,1.01-8.4,2.38-7.54,1.94c-0.42,0.22-0.84-0.41-0.41-0.63c-1.44,0.74,8.26-6.79,8.93-7.28
		C695.09,363.18,697.41,364.75,697.61,366.71z"/>
	<path class="st0" d="M835.04,168.39c-7.22-3.95-14.87-7.43-22.79-9.45c-0.68-0.17-0.94,0.81-0.38,1.09c0,0,0,0.01-0.01,0.01
		c7.81,3.29,15.4,6.54,22.71,10.69C834.72,169.96,834.88,169.17,835.04,168.39z"/>
	<path class="st0" d="M834.31,172.59c-9.99-5.43-20.32-10.06-30.96-14.07c-0.93,0.16-1.86,0.31-2.78,0.45
		c0.06,0.19,0.2,0.35,0.45,0.45c11.5,4.26,22.47,9.6,33.05,15.78C834.11,174.31,834.19,173.45,834.31,172.59z"/>
	<path class="st0" d="M829.09,173.97c-9.43-6.06-19.73-10.82-30.23-14.76c-0.82,0.11-1.65,0.2-2.47,0.29
		c11.1,4.55,21.43,10.21,31.73,16.39C829.32,176.61,830.24,174.71,829.09,173.97z"/>
	<path class="st0" d="M826.99,178.12c-11.16-6.94-22.75-12.99-34.77-18.19c-1.15,0.1-2.3,0.21-3.45,0.29
		c12.92,5.65,25.3,12.3,37.19,19.95C827.2,180.96,828.25,178.9,826.99,178.12z"/>
	<path class="st0" d="M826.63,184.59c-16.14-8.92-32.75-16.8-49.83-23.66c-1.27,0.07-2.55,0.15-3.82,0.23
		c18.08,7.38,35.61,15.89,52.59,25.57C826.89,187.49,827.98,185.34,826.63,184.59z"/>
	<path class="st0" d="M827.32,190.49c-19.47-11.35-39.78-20.94-60.88-28.82c-0.53,0.04-1.05,0.1-1.58,0.15
		c21.34,8.5,41.81,18.78,61.37,30.85C827.55,193.48,828.68,191.28,827.32,190.49z"/>
	<path class="st0" d="M823.47,192.33c-21.28-11.57-43.55-21.19-66.38-29.26c-0.79,0.34-1.68,0.57-2.66,0.67
		c23.43,8.59,45.94,19.02,67.87,30.93C823.77,195.48,824.95,193.14,823.47,192.33z"/>
	<path class="st0" d="M820.79,195.71c-23.41-13.19-48.1-23.64-73.76-31.45c-0.94,0.13-1.87,0.3-2.79,0.48
		c26.38,8.18,51.53,19.33,75.36,33.35C821.07,198.96,822.29,196.55,820.79,195.71z"/>
	<path class="st0" d="M822.31,204.31c-27.54-14.48-55.86-27.13-85.05-37.75c-0.92,0.29-1.84,0.58-2.76,0.89
		c29.76,11.01,58.72,24.09,86.51,39.46C822.64,207.81,823.97,205.18,822.31,204.31z"/>
	<path class="st0" d="M810.23,209.28c-25.46-16.13-53.16-30.06-81.85-39.7c-0.86,0.3-1.71,0.61-2.57,0.91
		c-0.25,0.09-0.5,0.15-0.74,0.24c29.03,11.91,56.82,25.09,83.61,41.65C810.57,213.55,812.09,210.46,810.23,209.28z"/>
	<path class="st0" d="M813.65,219.31c-30.65-19.19-63.37-34.51-97.62-45.91c-0.82,0.21-1.64,0.45-2.47,0.65
		c34.75,11.96,67.83,28.01,98.68,48.07C813.92,223.2,815.36,220.38,813.65,219.31z"/>
	<path class="st0" d="M809.38,230.09c0.41-0.45,0.85-0.84,1.3-1.2c-0.06-0.38-0.26-0.74-0.66-0.99
		c-32.81-20.83-68.49-39.1-105.4-51.98c-0.87,0.16-1.74,0.33-2.62,0.48c37.73,13.91,71.61,34.35,106.75,54.01
		c0.09,0.05,0.18,0.06,0.27,0.09C809.15,230.37,809.26,230.23,809.38,230.09z"/>
	<path class="st0" d="M807.27,232.53c-37.59-21.36-76.32-41.13-117.56-54.21c-0.89,0.13-1.77,0.25-2.66,0.37
		c41.81,13.27,80.19,34.55,118.25,56.19C805.95,234.09,806.6,233.31,807.27,232.53z"/>
	<path class="st0" d="M802.59,238.35c-41.18-23.27-83.16-45.48-129.02-57.7c-0.81,0.13-1.63,0.26-2.44,0.4
		c46.14,12.84,88.31,35.91,129.57,59.86C801.33,240.04,801.96,239.2,802.59,238.35z"/>
	<path class="st0" d="M797.94,244.85c-41.22-24.62-84-47.14-129.3-63.08c0.17,0.75,0.36,1.5,0.54,2.25
		c44.64,16.46,85.93,39.64,126.76,63.83C796.6,246.84,797.26,245.84,797.94,244.85z"/>
	<path class="st0" d="M793.64,251.36c-38.7-22.9-79.23-43.94-122.19-57.33c0.15,0.79,0.3,1.58,0.42,2.37
		c42.5,13.89,81.02,35.98,119.92,57.84C792.4,253.28,793.02,252.32,793.64,251.36z"/>
	<path class="st0" d="M791.97,253.96c-37.66-20.61-76.73-39.48-117.96-51.5c-1.39-0.41-1.84,1.79-0.47,2.2
		c41.22,12.35,78.82,32.23,116.66,52.09C790.79,255.82,791.38,254.89,791.97,253.96z"/>
	<path class="st0" d="M787.11,261.63C787.11,261.63,787.11,261.63,787.11,261.63c-35.99-20.71-74.3-37.63-113.41-51.58
		c0.13,0.47,0.27,0.93,0.44,1.4c0.19,0.52,0.39,1.03,0.59,1.55c38.29,14.08,74.89,31.5,110.68,51.16
		C785.97,263.31,786.53,262.46,787.11,261.63z"/>
	<path class="st0" d="M784.04,266.17c-34.39-18.65-70.49-34.35-107.2-47.85c0.35,0.83,0.71,1.66,1.07,2.49
		c35.95,13.62,70.58,29.8,104.59,47.74C783,267.75,783.51,266.96,784.04,266.17z"/>
	<path class="st0" d="M778.91,274.18c-30.97-18.42-64.22-33.52-97.81-46.57c0.51,1,1.02,2,1.55,2.99
		c32.56,13.14,63.53,28.9,94.24,45.96C777.57,275.78,778.24,274.98,778.91,274.18z"/>
	<path class="st0" d="M774.54,279.28c0.29-0.65,0.19-1.48-0.61-1.93c-28.28-15.7-58-29.05-88.02-41.06c0.6,0.98,1.2,1.96,1.83,2.92
		c29.02,12.15,57.05,26.06,84.87,40.77c0.52,0.27,0.98,0.19,1.35-0.04C774.16,279.73,774.35,279.5,774.54,279.28z"/>
	<path class="st0" d="M697.27,252.32c22.73,9.53,44.87,20.22,66.83,31.59c1.58,0.82,2.8-1.62,1.24-2.47
		c-22.7-12.3-46.41-22.87-70.51-32.26C695.63,250.23,696.45,251.28,697.27,252.32z"/>
	<path class="st0" d="M766.91,287.88c-20.66-10.34-42.02-19.49-63.55-28.01c1.05,1.29,2.11,2.57,3.16,3.86
		c19.7,8.32,39.1,17.23,58.52,26.25C765.66,289.28,766.28,288.58,766.91,287.88z"/>
	<path class="st0" d="M713,271.78c15.58,7.12,30.89,14.75,46.24,22.47c1.72,0.87,3.04-1.76,1.34-2.68
		c-16.55-8.94-33.74-16.82-51.09-24.18C710.68,268.85,711.85,270.31,713,271.78z"/>
	<path class="st0" d="M759.03,296.96c-13.11-6.22-26.51-11.88-39.96-17.37c0.89,1.13,1.77,2.26,2.67,3.38
		c11.88,5.3,23.68,10.77,35.54,16.13C757.86,298.39,758.44,297.67,759.03,296.96z"/>
	<path class="st0" d="M754.82,302.42c-9.29-4.84-18.8-9.3-28.31-13.69c1.36,1.58,2.73,3.14,4.16,4.66
		c7.73,3.72,15.37,7.62,23.02,11.51C753.93,304.07,754.32,303.24,754.82,302.42z"/>
	<path class="st0" d="M397.64,362.98c-4.48-2.26-9.4-3.88-14.23-5.19c-2.46-0.67-7.91-3.15-10.12-1.2
		c-0.27,0.24-0.25,0.73-0.08,1.02c0.05,0.09,0.11,0.17,0.16,0.26c0.14,0.22,0.41,0.36,0.67,0.34c0.11-0.01,0.21-0.01,0.32-0.02
		c0.27-0.01,0.53-0.22,0.58-0.49c0-0.01,0-0.02,0.01-0.04c0.53,0.23,1.12,0.42,1.13,0.43c0.99,0.34,2.12,0.5,3.14,0.77
		c1.88,0.49,3.74,1.05,5.58,1.66c4.01,1.33,7.81,3.09,11.68,4.77C398,365.93,399.14,363.73,397.64,362.98z"/>
	<path class="st0" d="M397.34,368.66c-11.37-5.23-23.73-8.44-35.99-10.75c-1.07-0.2-1.42,1.45-0.35,1.65
		c12.3,2.32,23.73,6.49,35.23,11.32C397.69,371.49,398.81,369.33,397.34,368.66z"/>
	<path class="st0" d="M397.46,374.69c-12.35-6.32-26.3-10.09-39.92-12.44c-0.74-0.13-0.98,1-0.24,1.14
		c13.79,2.72,26.41,7.53,39.24,13.13C397.74,377.06,398.65,375.3,397.46,374.69z"/>
	<path class="st0" d="M400.87,382.84c-11.3-8.57-26.49-13.44-40.23-16.41c-1.56-0.34-2.08,2.13-0.51,2.41
		c0.87,0.47,1.74,0.93,2.61,1.4c0.3,0.31,0.83,0.03,0.87-0.35c12.58,3.9,23.7,9.74,35.7,15.25
		C400.69,385.78,402.19,383.84,400.87,382.84z"/>
	<path class="st0" d="M402.22,390.47c-0.36-4.95-11.3-6.7-15.02-8.2c-8.84-3.55-17.64-7.29-26.65-10.41
		c-1.32-0.46-1.86,1.78-0.71,2.16c6.36,3.03,12.91,5.66,19.4,8.37c2.13,0.89,19.47,6.61,19.56,8.24
		C398.94,392.83,402.38,392.66,402.22,390.47z"/>
	<path class="st0" d="M401.84,396.77c-12.67-5.7-25.97-11.29-39.56-14.39c-0.78-0.18-1.26,1.05-0.48,1.36
		c13.01,5.09,26.1,9.59,38.77,15.54C402.22,400.04,403.49,397.51,401.84,396.77z"/>
	<path class="st0" d="M404.69,404.21c-13.42-6.76-28.13-11.7-42.68-15.32c-1.01-0.25-1.29,1.25-0.33,1.56
		c14.36,4.57,27.96,10.27,41.69,16.4C405.09,407.62,406.39,405.07,404.69,404.21z"/>
	<path class="st0" d="M409.53,412.25c0.01-0.01,0.01-0.03,0.02-0.04c-15.76-7.4-32.49-14.44-49.27-19.18
		c-1.41-0.4-2.32,1.08-2.06,2.28c0.26,1.21,0.43,1.48,1.44,2.19c0.89,0.63,1.83,0.33,2.32-0.3c16.04,4.45,31.14,11.61,46.95,16.75
		C410,414.3,410.37,412.78,409.53,412.25z"/>
	<path class="st0" d="M419.77,423.27c-17.43-7.59-35.12-14.54-52.88-21.32c-1.8-0.69-3.14,2.04-1.34,2.68
		c18,6.32,35.87,12.97,53.8,19.48C419.9,424.31,420.33,423.52,419.77,423.27z"/>
	<path class="st0" d="M423.31,432.88c-10.63-5.45-21.85-9.86-32.79-14.65c-8.77-3.83-17.43-8.21-26.74-10.56
		c-2.04-0.52-2.75,2.76-0.68,3.2c20.74,4.43,39.95,15.84,60.06,22.45C423.41,433.41,423.54,433,423.31,432.88z"/>
	<path class="st0" d="M428.14,439.56c-20.35-9.71-41.99-17.76-63.38-25.01c0.11,1.23,0.27,2.44,0.51,3.61
		c20.87,7.35,41.65,15.12,62.61,22.14C428.31,440.45,428.54,439.75,428.14,439.56z"/>
	<path class="st0" d="M436.55,447.08c-22.03-8.49-44.5-16.42-67.24-22.78c-2.28-0.64-2.98,2.89-0.76,3.57
		c22.5,6.92,44.98,13.71,67.28,21.27C437,449.53,437.71,447.53,436.55,447.08z"/>
	<path class="st0" d="M441.47,454.7c-20.95-6.94-42.16-13.13-63.25-19.64c-2.18-0.67-2.94,2.85-0.74,3.48
		c21.18,6.05,42.29,12.43,63.59,18.04C442.29,456.9,442.62,455.08,441.47,454.7z"/>
	<path class="st0" d="M447.34,459.97c-21.91-1.51-41.93-10.91-63.03-16.14c-2.31-0.57-3.03,2.98-0.76,3.59
		c2.49,0.67,4.98,1.35,7.47,2.02c0.17,0.05,0.33,0.04,0.48,0.02c18.51,5.09,36.59,11.92,55.94,12.84
		C448.97,462.38,448.81,460.07,447.34,459.97z"/>
	<path class="st0" d="M461.2,470.73c-22.7-5.5-44.86-13.21-67.55-18.62c-2.1-0.5-2.63,2.56-0.68,3.2
		c22.02,7.27,45.15,12.52,67.84,17.25C461.99,472.81,462.37,471.02,461.2,470.73z"/>
	<path class="st0" d="M466.26,477.46c-24.6-5.58-49.12-11.44-73.63-17.38c-0.26-0.35-0.66-0.62-1.23-0.65l-2.34-0.14
		c-2.01-0.12-2.17,3.05-0.28,3.45c25.72,5.43,51.41,10.96,77.05,16.78C467.15,479.82,467.58,477.76,466.26,477.46z"/>
	<path class="st0" d="M477.5,484.15c-27.02-5.07-53.93-10.47-80.63-17.09c-2.24-0.7-3.13,3.11-0.77,3.62
		c26.86,5.8,53.89,11.02,81.12,14.76C478.06,485.54,478.34,484.3,477.5,484.15z"/>
	<path class="st0" d="M481.09,488.59c-27.31-1.98-54.02-9.36-80.83-14.5c-2.34-0.45-3.11,3.16-0.77,3.62
		c26.83,5.23,54.3,11.47,81.68,12.57C482.27,490.32,482.15,488.67,481.09,488.59z"/>
	<path class="st0" d="M480.91,492.08c-24.66-3.79-49.56-7.68-74.32-10.63c-2.21-0.26-2.99,3.04-0.73,3.43
		c24.55,4.33,50.07,6.9,74.94,8.53C481.57,493.47,481.66,492.2,480.91,492.08z"/>
	<path class="st0" d="M478.47,498.48c-20.22,0.01-39.9-3.88-59.96-5.58c1.26,1.26,2.49,2.57,3.69,3.92
		c18.73,1.73,37.68,4.9,56.4,3.28C478.5,499.56,478.46,499.02,478.47,498.48z"/>
	<path class="st0" d="M474.92,504.55c-8.36,0.26-16.65-0.4-25.01-1.15c-5.49-0.49-14.08-2.84-19.06-0.32
		c-1.08,0.55-0.99,2.13-0.21,2.85c0.08,0.08,0.17,0.16,0.25,0.24c0.73,0.69,1.83,0.51,2.5-0.15c0.03-0.03,0.06-0.06,0.09-0.09
		c3.19-0.82,7.91,0.03,10.95,0.15c4.36,0.16,8.71,0.45,13.07,0.63c5.4,0.22,10.69,0.22,16-0.29
		C473.97,505.8,474.44,505.17,474.92,504.55z"/>
	<path class="st0" d="M471.75,509.04c-6.28,0.01-12.58-0.27-18.8-1.1c-2.03-0.27-2.31,2.76-0.23,2.82
		c6.03,0.17,12.02,0.17,18.03-0.15C471.08,510.08,471.42,509.56,471.75,509.04z"/>
	<path class="st0" d="M568.8,196.01c0.71-0.63-0.36-1.9-1.1-1.28c-0.87,0.72-1.74,1.45-2.61,2.17c-0.21,0.17-0.08,0.57,0.22,0.46
		c-7.29,2.59-15.4,9.71-22.78,13.82c-8.67,4.83-17.63,9.14-26.66,13.24c-16.82,7.64-33.92,14.61-50.53,22.73
		c-35.06,17.14-68.59,35.32-108.03,39.57c-1.47,0.16-1.37,2.29,0.11,2.29c37.9-0.06,72.14-19.6,105.15-35.99
		C498.26,235.31,538.62,223.03,568.8,196.01z"/>
	<path class="st0" d="M583.12,204.35c-6.58-1.48-13.48-2.6-20.25-3.29c-0.05-0.2-0.23-0.37-0.51-0.32
		c-0.77,0.01-1.54,0.02-2.32,0.03c-1.19-0.22-1.59,1.6-0.39,1.85c7.59,1.57,15.27,3.02,22.9,4.39
		C584.27,207.31,584.83,204.73,583.12,204.35z"/>
	<path class="st0" d="M588.14,211.2c0.89-0.71,0.86-2.41-0.49-2.61c-11.74-1.78-23.59-2.96-35.4-4.17
		c-1.12-0.11-1.52,1.58-0.37,1.74c10.91,1.49,21.78,3.27,32.68,4.87c0.13,0.55,0.57,1.03,1.25,0.99
		C587,211.95,587.22,211.94,588.14,211.2z"/>
	<path class="st0" d="M580.05,215.81c0.04-0.1,0.08-0.21,0.12-0.31c0.26-0.68,0.06-1.27-0.55-1.67c-1.92-1.24-4.8-1.09-7.02-1.4
		c-3.4-0.47-6.8-0.9-10.21-1.27c-6.2-0.68-12.41-1.18-18.64-1.55c-0.76-0.05-0.88,1.27-0.11,1.34c5.79,0.55,11.56,1.22,17.31,2.04
		c2.71,0.39,5.41,0.81,8.11,1.26c1.35,0.23,2.7,0.46,4.05,0.7c2.82,0.51,2.37,0.15,5.24-0.72c-1.28,0.39-0.87,2.23,0.4,2.24l0.29,0
		C579.43,216.47,579.91,216.18,580.05,215.81z"/>
	<path class="st0" d="M572.43,217.29c-11.84-1.86-23.97-2.34-35.95-2.25c-0.94,0.01-0.85,1.42,0.07,1.45
		c11.89,0.34,23.57,1.74,35.34,3.37C573.54,220.08,574.11,217.55,572.43,217.29z"/>
	<path class="st0" d="M561.64,221.07c-10.78-0.83-21.56-1.55-32.35-2.16c-1.18-0.07-1.06,1.74,0.09,1.82
		c10.03,0.76,20.05,1.62,30.07,2.56c0.19,0.17,0.45,0.29,0.81,0.27c0.5-0.02,1-0.04,1.51-0.07
		C563.36,223.42,563.15,221.18,561.64,221.07z"/>
	<path class="st0" d="M553.6,225.92c-10.03-0.69-20.07-1.22-30.11-1.62c-1.03-0.04-0.93,1.53,0.08,1.59
		c9.26,0.54,18.5,1.3,27.74,2.22c0.19,0.2,0.47,0.32,0.85,0.3c0.52-0.03,1.04-0.06,1.56-0.08
		C555.31,228.24,555.11,226.02,553.6,225.92z"/>
	<path class="st0" d="M542.6,231.28c-10.17-0.99-20.36-1.76-30.57-2.32c-1.03-0.06-0.92,1.51,0.08,1.59
		c10.02,0.81,20.02,1.83,30,3.07C543.63,233.8,544.11,231.43,542.6,231.28z"/>
	<path class="st0" d="M533.93,237.29c-11-1.42-22.01-2.85-33.01-4.27c-1.18-0.15-1.59,1.66-0.39,1.83
		c10.97,1.59,21.94,3.19,32.91,4.78C534.96,239.85,535.45,237.49,533.93,237.29z"/>
	<path class="st0" d="M524.42,242.13c-11.35-1.93-22.77-3.36-34.23-4.49c-1.07-0.11-1.43,1.54-0.35,1.65
		c11.45,1.13,22.81,2.89,34.1,5.09C525.39,244.66,525.87,242.38,524.42,242.13z"/>
	<path class="st0" d="M511.13,247.81c-9.74-2.25-19.61-3.67-29.59-4.29c-0.91-0.06-0.82,1.34,0.07,1.4
		c9.85,0.72,19.55,2.3,29.13,4.71C511.91,249.94,512.3,248.09,511.13,247.81z"/>
	<path class="st0" d="M505.5,252.19c-11.93-1.73-23.89-3.16-35.9-4.25c-1.18-0.11-1.59,1.7-0.39,1.83
		c11.97,1.28,23.89,2.88,35.77,4.85C506.56,254.88,507.08,252.42,505.5,252.19z"/>
	<path class="st0" d="M494.57,257.01c-10.72-2.98-22.13-4.01-33.22-4.23c-0.94-0.02-0.85,1.42,0.07,1.45
		c11.19,0.41,21.84,2.34,32.76,4.61C495.37,259.09,495.72,257.33,494.57,257.01z"/>
	<path class="st0" d="M484.89,262.65c-12.29-1.77-24.8-2.53-37.18-3.43c-0.95-0.07-1.09,1.58-0.13,1.67
		c12.32,1.05,24.59,2.67,36.9,3.73C485.73,264.73,486.2,262.84,484.89,262.65z"/>
	<path class="st0" d="M474.79,266.14c-12.75-1.58-26.44-3.27-39.28-2.99c-0.78,0.02-0.86,1.18-0.11,1.34
		c12.61,2.67,26.3,3.52,39.17,4.34C476.1,268.92,476.32,266.33,474.79,266.14z"/>
	<path class="st0" d="M468.83,269.47c-12.29-1.33-24.61-2.36-36.96-3.03c-0.34-0.02-0.39,0.57-0.05,0.6
		c12.23,1.15,24.42,2.64,36.56,4.53C469.77,271.79,470.2,269.61,468.83,269.47z"/>
	<path class="st0" d="M464.78,273.3c-13.93-2.15-27.95-3.51-42.02-4.25c-0.79-0.04-0.71,1.16,0.06,1.22
		c13.94,0.94,27.74,2.81,41.46,5.41C465.82,275.97,466.33,273.54,464.78,273.3z"/>
	<path class="st0" d="M457.53,277.74c-13-2.88-26.43-4.16-39.72-4.76c-0.67-0.03-0.6,0.98,0.05,1.03
		c13.26,1.06,26.18,3.37,39.2,5.98C458.5,280.27,458.97,278.06,457.53,277.74z"/>
	<path class="st0" d="M449.39,282.05c-13.92-3.66-28.45-5.55-42.76-6.8c-1.15-0.1-1.55,1.66-0.38,1.79
		c14.45,1.49,28.45,4.36,42.62,7.44C450.45,284.82,450.93,282.46,449.39,282.05z"/>
	<path class="st0" d="M440.92,285.94c-1.74-1.63-5.2-1.73-7.44-2.23c-3.96-0.87-7.94-1.62-11.94-2.27
		c-7.71-1.25-15.47-2.08-23.27-2.57c-0.89-0.06-1.03,1.5-0.13,1.57c6.97,0.58,13.91,1.42,20.8,2.62c3.26,0.57,6.51,1.21,9.75,1.93
		c2.88,0.64,7.49,0.91,10.17,2.42c0,0.01,0,0.01,0.01,0.02c0.03,0.05,0.07,0.1,0.1,0.16c0.35,0.55,1.07,0.65,1.6,0.34
		c0.07-0.04,0.14-0.08,0.22-0.13C441.46,287.42,441.45,286.44,440.92,285.94z"/>
	<path class="st0" d="M433.67,289.01c-15.98-3.32-32.15-5.73-48.36-7.61c-1.15-0.13-1.55,1.63-0.38,1.79
		c16.2,2.09,32.23,4.95,48.24,8.16C434.68,291.65,435.18,289.32,433.67,289.01z"/>
	<path class="st0" d="M430.14,293.71c-18.36-4.45-36.96-7.43-55.79-8.95c-0.52-0.04-0.6,0.87-0.07,0.93
		c18.72,2.04,37.17,5.54,55.34,10.49C431.19,296.61,431.73,294.1,430.14,293.71z"/>
	<path class="st0" d="M428.95,297.72c-20.94-2.71-41.98-5.49-63.07-6.81c-0.48-0.03-0.54,0.76-0.07,0.83
		c20.82,3.11,41.75,5.48,62.57,8.63C430.11,300.63,430.67,297.94,428.95,297.72z"/>
	<path class="st0" d="M415.71,301.44c-10.89-1.4-21.78-2.81-32.67-4.24c-0.92-0.12-1.23,1.28-0.3,1.42
		c10.84,1.66,21.67,3.34,32.51,5.02C416.68,303.86,417.14,301.63,415.71,301.44z"/>
	<path class="st0" d="M628.79,478.57c14.61-13.02,28.61-27.07,41.09-42.16c5.25-6.35,10.16-12.99,14.63-19.91
		c3.83-5.93,11.71-16,12.01-23.11c-0.02,0.36,0.52,0.37,0.6,0.05c0.27-1.08,0.54-2.16,0.81-3.25c0.18-0.71-0.89-1.08-1.21-0.42
		c-16.26,34.01-43.08,61.31-70.92,86.16c-29.81,26.62-62.75,47.85-97.51,67.33c-1.85,1.04-0.06,3.58,1.76,2.71
		C565.94,528.79,599.15,504.98,628.79,478.57z"/>
	<path class="st0" d="M698.76,406.12c-1.3-0.73-3.09-0.94-4.55-1.14c-1.13-0.15-3.1-0.69-4.1-0.03c-0.62,0.41-0.51,1.26,0.09,1.61
		c0.5,0.3,1.11,0.3,1.67,0.41c0.68,0.13,1.36,0.27,2.03,0.44c1.31,0.32,2.7,0.92,4.03,1.03
		C699.3,408.56,700.07,406.85,698.76,406.12z"/>
	<path class="st0" d="M700.21,409.16c-3.7-0.63-7.61-0.59-11.35-0.84c-1-0.07-1.14,1.63-0.14,1.76c3.72,0.49,7.55,1.29,11.31,1.39
		C701.35,411.51,701.51,409.38,700.21,409.16z"/>
	<path class="st0" d="M696.64,412.42c-3.84-0.48-7.74-0.7-11.6-0.63c-0.97,0.02-0.89,1.49,0.07,1.5c3.76,0.01,7.42,0.42,11.09,1.24
		C697.57,414.83,698.01,412.59,696.64,412.42z"/>
	<path class="st0" d="M695.87,417.24c-4.59-1.58-9.35-2.31-14.2-2.21c-1.15,0.02-1.05,1.76,0.08,1.78c4.59,0.06,9.09,0.9,13.38,2.54
		C696.64,419.92,697.42,417.77,695.87,417.24z"/>
	<path class="st0" d="M692.67,420.97c-4.45-1.38-9.46-1.62-14.1-1.56c-1.18,0.02-1.08,1.81,0.09,1.82
		c4.67,0.05,9.02,0.93,13.58,1.75C693.57,423.22,693.92,421.36,692.67,420.97z"/>
	<path class="st0" d="M689.22,424.67c-3.93-0.3-7.86-0.61-11.79-0.91c-0.92-0.07-1.06,1.52-0.13,1.62
		c3.92,0.41,7.84,0.82,11.77,1.23C690.47,426.76,690.64,424.78,689.22,424.67z"/>
	<path class="st0" d="M685.45,429.35c-3.61-1.61-8-1.83-11.88-1.48c-1.38,0.12-1.29,2.22,0.1,2.15c3.88-0.19,7.27,0.68,10.98,1.61
		C685.98,431.96,686.72,429.92,685.45,429.35z"/>
	<path class="st0" d="M682.27,434.86c-4.47-1.36-9.41-1.47-14.02-0.93c-1.34,0.16-1.25,2.25,0.1,2.1c4.62-0.49,8.95,0.03,13.47,0.94
		C683.2,437.24,683.58,435.25,682.27,434.86z"/>
	<path class="st0" d="M677.24,440.46c-4.1-1.29-8.46-1.63-12.74-1.36c-1.41,0.09-1.31,2.27,0.1,2.2c4.16-0.21,8.15,0.35,12.17,1.36
		C678.2,443.02,678.59,440.88,677.24,440.46z"/>
	<path class="st0" d="M675.01,447.55c-5.6-0.83-11.19-1.67-16.79-2.5c-1.22-0.18-1.62,1.69-0.4,1.88
		c5.59,0.86,11.18,1.73,16.77,2.59C675.87,449.72,676.29,447.75,675.01,447.55z"/>
	<path class="st0" d="M669.68,454.8c-5.51-2.11-11.55-2.99-17.41-3.32c-1.33-0.08-1.2,1.96,0.1,2.06
		c5.73,0.42,11.08,1.81,16.58,3.37C670.15,457.25,670.88,455.26,669.68,454.8z"/>
	<path class="st0" d="M666,460.57c-6.34-1.45-13.06-1.84-19.54-2.22c-1.42-0.08-1.29,2.1,0.1,2.2c6.38,0.43,12.64,1.51,18.98,2.17
		C666.92,462.86,667.41,460.89,666,460.57z"/>
	<path class="st0" d="M663.42,465.8c-6.68-2.36-14.62-2.64-21.64-3.31c-1.27-0.12-1.71,1.84-0.42,1.97c3.8,0.38,7.59,0.84,11.36,1.4
		c3.43,0.51,6.89,1.39,10.36,1.5C663.88,467.37,664.19,466.07,663.42,465.8z"/>
	<path class="st0" d="M657.3,470.96c-5.5-0.91-11-1.82-16.5-2.73c-1.36-0.23-1.82,1.87-0.45,2.11c5.49,0.94,10.99,1.88,16.48,2.82
		C658.26,473.4,658.73,471.2,657.3,470.96z"/>
	<path class="st0" d="M652.72,477.88c-7.48-2.13-15.91-2.25-23.62-3.19c-1.31-0.16-1.75,1.85-0.43,2.01
		c7.78,0.99,16.08,2.95,23.93,2.71C653.51,479.38,653.54,478.11,652.72,477.88z"/>
	<path class="st0" d="M649.14,482.39c-2.96-2.19-7.7-1.68-11.25-1.96c-2.53-0.2-5.07-0.35-7.6-0.5c-2.04-0.12-4.32-0.6-6.33-0.12
		c-0.33,0.08-0.64,0.5-0.59,0.84c0.01,0.09,0.03,0.19,0.04,0.28c0.05,0.35,0.24,0.59,0.59,0.69c0.07,0.02,0.15,0.04,0.22,0.06
		c0.56,0.16,0.98-0.55,0.68-1c0.87,1.33,3.83,1.06,5.22,1.21c2.07,0.22,4.13,0.46,6.2,0.69c2.3,0.26,6.17,0.06,8.94,0.82
		c-0.17,0.75,0.29,1.69,1.22,1.57c0.62-0.06,1.23-0.16,1.84-0.28C649.32,484.54,650.18,483.17,649.14,482.39z"/>
	<path class="st0" d="M643.36,486.79c-7.76-0.93-15.57-1.42-23.39-1.44c-0.7,0-0.63,1.06,0.05,1.08c7.71,0.23,15.33,0.97,22.94,2.24
		C644.19,488.87,644.57,486.94,643.36,486.79z"/>
	<path class="st0" d="M636.95,493.18c-8.88-1.5-17.83-2.33-26.83-2.5c-1.03-0.02-0.93,1.54,0.08,1.59
		c8.25,0.39,16.43,1.39,24.54,2.92c0.22,0.44,0.68,0.75,1.31,0.57c0.34-0.1,0.69-0.19,1.03-0.29
		C638.19,495.15,638.11,493.37,636.95,493.18z"/>
	<path class="st0" d="M635.23,499.07c-10.11-1.36-20.35-1.93-30.54-2.17c-1.1-0.03-0.99,1.63,0.08,1.68
		c10.04,0.52,19.98,1.65,29.95,2.91C636.29,501.69,636.82,499.28,635.23,499.07z"/>
	<path class="st0" d="M627.72,503.78c-10.14-1.51-20.52-1.99-30.76-2.25c-1.16-0.03-1.04,1.72,0.08,1.78
		c10.12,0.52,20.1,1.75,30.16,2.9C628.77,506.38,629.32,504.01,627.72,503.78z"/>
	<path class="st0" d="M622.09,508.86c-11.49-1.05-22.99-1.79-34.46-3.1c-1.06-0.12-1.43,1.5-0.35,1.65
		c11.48,1.57,23.05,3.11,34.62,3.76C623.22,511.25,623.41,508.99,622.09,508.86z"/>
	<path class="st0" d="M616.3,516.85c-12.34-1.9-24.68-3.81-37.03-5.71c-1.19-0.18-1.58,1.63-0.39,1.83
		c12.3,2.09,24.61,4.17,36.91,6.26C617.35,519.49,617.85,517.08,616.3,516.85z"/>
	<path class="st0" d="M608.19,522.66c-11.77-2.07-23.64-3.3-35.58-3.75c-0.97-0.04-0.88,1.44,0.07,1.5
		c11.33,0.69,22.55,2.14,33.69,4.25c0.1,0.05,0.2,0.1,0.33,0.12c0.34,0.04,0.68,0.08,1.02,0.13
		C609.15,525.07,609.66,522.92,608.19,522.66z"/>
	<path class="st0" d="M602.18,528.65c-13.16-1.04-26.18-3.04-39.06-5.96c-1.35-0.31-1.79,1.79-0.45,2.11
		c12.95,3.07,26.05,5.18,39.3,6.35C603.78,531.31,604.01,528.79,602.18,528.65z"/>
	<path class="st0" d="M595.3,533.15c-13.69-2.15-27.44-3.91-41.23-5.27c-1.06-0.1-1.43,1.52-0.35,1.65
		c13.76,1.57,27.46,3.54,41.1,5.91C596.3,535.69,596.79,533.38,595.3,533.15z"/>
	<path class="st0" d="M586.3,539.31c-14.15-3.64-28.83-5.41-43.4-6.18c-1.06-0.06-0.96,1.56,0.08,1.64
		c14.55,1,28.65,3.55,42.86,6.74C587.25,541.83,587.69,539.67,586.3,539.31z"/>
	<path class="st0" d="M579.09,543.74c-15.13-2.16-30.31-3.93-45.53-5.3c-1.18-0.11-1.59,1.71-0.39,1.83
		c15.18,1.58,30.32,3.56,45.4,5.94C580.18,546.47,580.7,543.97,579.09,543.74z"/>
	<path class="st0" d="M579.48,547.63c-17.6-2.21-35.37-3.45-53.03-5.11c-1.45-0.14-1.95,2.1-0.48,2.24
		c17.75,1.78,35.52,4,53.31,5.23C580.63,550.08,580.82,547.8,579.48,547.63z"/>
	<path class="st0" d="M573.78,550.73c-15.58-1.93-31.27-3.14-46.9-4.67c-1.51-0.15-2.02,2.18-0.49,2.33
		c15.72,1.54,31.46,3.41,47.21,4.56C574.87,553.05,575.05,550.89,573.78,550.73z"/>
	<path class="st0" d="M572.56,554.16c-14.52-1.56-29.09-2.32-43.59-4.23c-1.57-0.21-2.1,2.21-0.51,2.43
		c14.47,1.94,29.3,3.97,43.93,4.07C573.66,556.43,573.86,554.3,572.56,554.16z"/>
	<path class="st0" d="M563.01,558.36c-10.19-1.24-20.51-1.74-30.74-2.57c-1.26-0.1-1.45,2.11-0.18,2.22
		c10.23,0.9,20.48,2.13,30.74,2.62C564.11,560.69,564.3,558.52,563.01,558.36z"/>
	<path class="st0" d="M558.16,563.08c-10.18-1.4-20.5-2.09-30.74-2.79c-1.56-0.11-1.43,2.32,0.12,2.43
		c10.07,0.7,20.08,1.83,30.13,2.69C559.16,565.54,559.72,563.29,558.16,563.08z"/>
	<path class="st0" d="M550.91,567.78c-7.37-1.16-14.98-1.38-22.41-2.02c-1.48-0.13-1.99,2.15-0.49,2.29
		c7.53,0.71,15.15,1.86,22.71,2.05C552.05,570.12,552.22,567.98,550.91,567.78z"/>
	<path class="st0" d="M542.64,571.83c-3.48,0.18-6.95,0.35-10.43,0.53c-0.9,0.05-0.84,1.43,0.07,1.4c3.48-0.11,6.96-0.23,10.44-0.34
		C543.74,573.38,543.66,571.78,542.64,571.83z"/>
	<path class="st0" d="M127.7,686.12c15.37-15.62,31.82-29.88,49.38-42.99c2.49-1.86-0.1-5.93-2.65-4.08
		c-14.67,10.61-28.53,22.22-41.62,34.69c22.27-52.72,59.15-98.1,106.53-130.53c1.74-1.19,1.37-3.42-0.25-4.47
		c-14.92-9.73-38.29-8.31-55.34-7.12c-15.69,1.09-31.09,4.18-46,8.98c20.53-18.02,41.47-35.68,64.71-50.13
		c26.92-16.73,56.72-27.47,86.46-38c1.84-0.65,2.48-3.72,0.36-4.54c-21.24-8.16-43.16-13.38-65.69-15.68
		c30.76-13.88,63.57-22.04,97.33-24.28c2.46-0.16,2.86-3.23,0.94-4.42c-11.32-6.98-22.64-13.96-33.94-20.96
		c17.94-0.76,35.82-0.08,53.68,2.09c2.5,0.3,4.34-2.66,2.28-4.52c-3.02-2.73-6.03-5.46-9.05-8.18c9.96,2.82,18.55,8.87,25.64,16.77
		c1.1,1.23,2.86-0.52,2.11-1.82c-7.71-13.37-21.07-20.7-36.29-22.08c-2.61-0.24-4.67,2.79-2.42,4.81c3.41,3.06,6.87,6.06,10.34,9.06
		c-17.95-1.56-35.93-1.71-53.94-0.38c-2.44,0.18-2.87,3.21-0.93,4.4c11.41,7.01,22.79,14.08,34.18,21.13
		c-34.94,3.16-68.75,12.62-100.38,27.99c-2.43,1.18-0.62,4.3,1.43,4.44c22.72,1.55,44.95,6.2,66.37,13.8
		c-27.98,9.98-55.78,20.55-81.16,36.24c-27.35,16.91-51.56,38.26-75.63,59.43c-1.92,1.69,0.44,5.05,2.71,4.17
		c17.27-6.76,35.25-11.25,53.75-12.88c15.9-1.4,37.44-3.2,52.51,4.25c-49.89,35.18-88.3,84.64-109.75,141.87
		C122.33,685.92,125.5,688.36,127.7,686.12z"/>
	<path class="st0" d="M322.81,646.7c16.4-15.92,33.22-31.81,47.43-49.77c8.73-11.04,14.29-22.67,18.39-35.33
		c0.22,11.9-0.66,23.75-2.72,35.62c-0.38,2.17,2.17,4.35,4.16,2.85c20.44-15.36,35.59-35.61,44.55-59.32
		c1.76,4.01,3.52,8.03,5.31,12.03c0.89,1.99,3.84,2.68,4.94,0.39c2.66-5.58,4.68-11.33,5.55-17.47c0.75-5.26-2.12-16.21,0.84-20.08
		c1.66-2.17-1.45-5.02-3.22-2.86c-3.12,3.81-1.96,7.48-1.85,12.21c0.16,7.09-1.18,13.85-3.69,20.33c-1.84-4.28-3.67-8.56-5.53-12.83
		c-1.13-2.58-4.47-2.44-5.33,0.26c-7.34,23.06-20.88,43.14-39.31,58.56c2.1-15.37,2.36-30.77,0.74-46.28
		c-0.32-3.02-4.64-3.52-5.36-0.43c-4.82,20.68-11.92,37.59-25.76,53.93c-11.3,13.34-23.71,25.69-36.23,37.89
		c4.76-20.83,5.8-42.12,3.08-63.43c-0.39-3.02-4.35-3.33-5.23-0.42c-9.91,32.7-35.04,56.58-60.23,78.37
		c4.89-21.45,7.25-43.27,7.09-65.33c-0.01-1.63-1.83-2.88-3.36-2.34c-19.46,6.88-36.81,17.73-53.9,29.12
		c-18.3,12.2-36.43,24.65-54.46,37.24c-1.97,1.38,0,4.44,2.04,3.14c17.45-11.17,34.81-22.48,52.05-33.98
		c16.76-11.18,33.58-22.14,52.45-29.35c-0.14,23.06-3.09,45.8-8.86,68.15c-0.52,2.02,2.22,4.22,3.97,2.72
		c25.25-21.6,51.05-44.5,64.22-75.34c1.23,20.03-0.87,39.93-6.38,59.4C317.41,647.15,321.05,648.41,322.81,646.7z"/>
	<path class="st0" d="M407.5,514.79c4.26-6,8.42-12.04,12.41-18.23c1.43-2.22-2.22-4.69-3.84-2.6c-4.42,5.68-9.12,15.61-14.76,20.07
		c-0.94,3.36-2.2,3.82-3.8,1.36c-1.83-1.18-2.9-2.91-3.21-5.17c-2.38-4.53-3.97-9.72-5.91-14.47c-0.77-1.88-3.23-2.69-4.7-1
		c-4.73,5.46-8.77,11.3-11.68,17.93c-2.83,6.46-4.23,14.99-9.7,19.78c0.31-7.68,0.64-15.36,0.83-23.04
		c0.14-5.42-0.05-9.27-3.76-13.28c-1.08-1.16-2.91-0.7-3.91,0.24c-8.34,7.87-16.54,15.89-24.55,24.1
		c-6.31,6.47-12.41,14.71-20.19,19.78c4.59-8.7,8.97-17.51,13.11-26.45c1.04-2.23-1.01-4.58-3.36-3.93
		c-13.89,3.8-27.67,7.99-41.4,12.3c20.25-14.86,41.85-27.67,64.73-38.21c2.26-1.04,2.8-4.03,0.42-5.35
		c-9.42-5.23-19.24-9.03-29.54-11.45c16.9-4.16,34.05-6.99,51.45-8.44c2.48-0.21,3.42-3.12,1.7-4.83
		c-10.39-10.35-21.62-19.75-33.76-27.93c11.52-0.66,22.48,0.95,34.07,3.34c1,0.21,1.82-0.75,1.55-1.71
		c-0.91-3.16-1.82-6.33-2.73-9.49c-0.01-0.05-0.09-0.04-0.09,0.02c0.05,2.53,1.11,6.28-1.22,7.2c-1.88,0.74-12.09-3.22-14.3-3.55
		c-8.34-1.25-16.7-1.25-25.07-0.3c-2.75,0.31-3.2,3.51-1.05,4.94c12.35,8.2,23.86,17.17,34.55,27.34
		c-20.11,1.95-39.9,5.67-59.37,11.2c-2.68,0.76-2.64,5.24,0.28,5.6c12.6,1.56,24.48,5.05,35.77,10.57
		c-26.21,12.63-50.78,28-73.5,46.25c-2.36,1.9-0.83,6.1,2.4,5.07c16.86-5.37,33.75-10.68,50.78-15.5
		c-4.55,9.55-9.34,18.97-14.41,28.26c-1.17,2.14,1.11,4.61,3.34,3.91c10.59-3.29,17.27-11.68,24.68-19.45
		c8.86-9.28,17.98-18.31,27.27-27.16c1.86,4.69,0.39,12.22,0.23,16.49c-0.23,6.2-0.46,12.41-0.69,18.61
		c-0.06,1.69,2.03,3.15,3.59,2.5c6.34-2.64,9.7-7.2,12.37-13.43c3.78-8.81,6.81-16.95,12.34-24.56c2.17,6,4.23,12.44,7.4,17.67
		c1.34,2.21,2.54,4.23,5.41,4.26C402.47,524.11,405.29,517.89,407.5,514.79z"/>
</g>
</svg>
